HIERARCHY
ROOT Hips
{
	OFFSET 0.000000 0.000000 0.000000
	CHANNELS 6 Xposition Yposition Zposition Xrotation Yrotation Zrotation
	JOINT LeftUpLeg_virtual
	{
		OFFSET 0.000000 0.000000 0.000000
		CHANNELS 3 Xrotation Yrotation Zrotation
		JOINT LeftUpLeg
		{
			OFFSET 15.427100 -6.655098 0.678600
			CHANNELS 3 Xrotation Yrotation Zrotation
			JOINT LeftLeg
			{
				OFFSET 4.081073 -39.591068 13.024000
				CHANNELS 3 Xrotation Yrotation Zrotation
				JOINT LeftFoot
				{
					OFFSET -4.081074 -37.707932 -15.979700
					CHANNELS 3 Xrotation Yrotation Zrotation
					JOINT LeftToeBase
					{
						OFFSET 5.346399 -15.068900 20.645000
						CHANNELS 3 Xrotation Yrotation Zrotation
						JOINT LeftToe_End
						{
							OFFSET 2.754700 0.931300 11.300900
							CHANNELS 3 Xrotation Yrotation Zrotation
							End Site
							{
								OFFSET 0 0 0
							}
						}
					}
				}
			}
		}
	}
	JOINT RightUpLeg_virtual
	{
		OFFSET 0.000000 0.000000 0.000000
		CHANNELS 3 Xrotation Yrotation Zrotation
		JOINT RightUpLeg
		{
			OFFSET -15.569500 -6.655098 0.678600
			CHANNELS 3 Xrotation Yrotation Zrotation
			JOINT RightLeg
			{
				OFFSET -4.081825 -39.591045 13.023800
				CHANNELS 3 Xrotation Yrotation Zrotation
				JOINT RightFoot
				{
					OFFSET 4.081824 -37.707954 -15.979600
					CHANNELS 3 Xrotation Yrotation Zrotation
					JOINT RightToeBase
					{
						OFFSET -5.346400 -15.068900 20.645000
						CHANNELS 3 Xrotation Yrotation Zrotation
						JOINT RightToe_End
						{
							OFFSET -2.754700 0.931300 11.300900
							CHANNELS 3 Xrotation Yrotation Zrotation
							End Site
							{
								OFFSET 0 0 0
							}
						}
					}
				}
			}
		}
	}
	JOINT Spine_virtual
	{
		OFFSET 0.000000 0.000000 0.000000
		CHANNELS 3 Xrotation Yrotation Zrotation
		JOINT Spine
		{
			OFFSET -0.279200 12.230698 -2.892100
			CHANNELS 3 Xrotation Yrotation Zrotation
			JOINT Spine1
			{
				OFFSET -0.232667 10.192268 -1.242267
				CHANNELS 3 Xrotation Yrotation Zrotation
				JOINT Spine1_split
				{
					OFFSET -0.232667 10.192268 -1.242267
					CHANNELS 3 Xrotation Yrotation Zrotation
					JOINT Spine2
					{
						OFFSET -0.232667 10.192268 -1.242267
						CHANNELS 3 Xrotation Yrotation Zrotation
						JOINT Neck_virtual
						{
							OFFSET 0.000000 0.000000 0.000000
							CHANNELS 3 Xrotation Yrotation Zrotation
							JOINT Neck
							{
								OFFSET -0.418800 17.814194 8.416900
								CHANNELS 3 Xrotation Yrotation Zrotation
								JOINT Head
								{
									OFFSET 0.000000 7.031097 3.806800
									CHANNELS 3 Xrotation Yrotation Zrotation
									JOINT HeadTop_End
									{
										OFFSET 0.000000 24.646606 12.978600
										CHANNELS 3 Xrotation Yrotation Zrotation
										End Site
										{
											OFFSET 0 0 0
										}
									}
								}
							}
						}
						JOINT LeftShoulder_virtual
						{
							OFFSET 0.000000 0.000000 0.000000
							CHANNELS 3 Xrotation Yrotation Zrotation
							JOINT LeftShoulder
							{
								OFFSET 8.476499 7.247704 -3.868750
								CHANNELS 3 Xrotation Yrotation Zrotation
								JOINT LeftShoulder_split
								{
									OFFSET 8.476499 7.247704 -3.868750
									CHANNELS 3 Xrotation Yrotation Zrotation
									JOINT LeftArm
									{
										OFFSET 9.308998 -2.777710 0.208600
										CHANNELS 3 Xrotation Yrotation Zrotation
										JOINT LeftForeArm
										{
											OFFSET 29.972298 0.000000 0.000000
											CHANNELS 3 Xrotation Yrotation Zrotation
											JOINT LeftHand
											{
												OFFSET 26.026505 0.000000 0.000000
												CHANNELS 3 Xrotation Yrotation Zrotation
												End Site
												{
													OFFSET 0 0 0
												}
											}
										}
									}
								}
							}
						}
						JOINT RightShoulder_virtual
						{
							OFFSET 0.000000 0.000000 0.000000
							CHANNELS 3 Xrotation Yrotation Zrotation
							JOINT RightShoulder
							{
								OFFSET -7.570500 7.247704 -3.868750
								CHANNELS 3 Xrotation Yrotation Zrotation
								JOINT RightShoulder_split
								{
									OFFSET -7.570500 7.247704 -3.868750
									CHANNELS 3 Xrotation Yrotation Zrotation
									JOINT RightArm
									{
										OFFSET -9.308998 -2.777710 0.208500
										CHANNELS 3 Xrotation Yrotation Zrotation
										JOINT RightForeArm
										{
											OFFSET -29.972300 0.000000 0.000000
											CHANNELS 3 Xrotation Yrotation Zrotation
											JOINT RightHand
											{
												OFFSET -26.026505 0.000000 0.000000
												CHANNELS 3 Xrotation Yrotation Zrotation
												End Site
												{
													OFFSET 0 0 0
												}
											}
										}
									}
								}
							}
						}
					}
				}
			}
		}
	}
}
MOTION
Frames: 4
Frame Time: 0.03333333
3.199706 52.179115 131.322128 0.000000 0.000000 0.000000 17.153187 -57.341924 27.330942 -51.963188 -35.780721 40.421678 73.634801 -0.557684 -38.810310 -9.102497 1.389845 -14.192648 1.530330 0.586010 -2.059316 0.000000 0.000000 0.000000 16.504418 -59.781647 29.039529 -63.955795 30.393065 -47.180061 97.025371 26.859301 10.509597 -36.079702 -6.830773 15.164644 4.385258 0.336440 0.505105 0.000000 0.000000 0.000000 15.593848 -59.501610 25.186995 35.845526 -1.426451 -10.120681 0.892476 4.924596 -1.388759 1.067584 -2.303559 1.556622 0.000000 0.000000 0.000000 1.050537 5.783795 -0.664608 -13.873223 18.992874 -1.883060 3.763025 23.185601 -19.093123 0.000000 0.000000 0.000000 4.456332 5.515935 -0.948236 3.674751 -18.098400 -2.947712 -5.082029 0.677067 -3.335037 -20.594011 22.180259 -24.993863 -51.445777 -79.067766 -42.192804 0.000000 0.000000 0.000000 4.363533 6.040087 -0.805086 -2.264829 31.387810 20.378310 4.569846 5.883294 -0.861062 -51.556184 -5.292694 19.390789 -34.494412 58.054258 29.319308 0.000000 0.000000 0.000000 
3.200164 51.839401 130.703262 0.000000 0.000000 0.000000 19.178102 -55.982344 27.683218 -53.345215 -35.943252 40.826213 75.720071 -1.228563 -41.253888 -11.224303 2.092752 -14.347002 1.764708 0.587891 -0.424174 0.000000 0.000000 0.000000 18.340450 -58.753356 29.129872 -64.347608 30.601228 -47.917981 96.003602 27.577867 11.773318 -38.081057 -8.281660 15.290150 6.926617 0.572317 0.543402 0.000000 0.000000 0.000000 15.886752 -57.813658 24.105980 37.672783 -2.208808 -11.225261 0.578532 4.824125 -1.090923 1.011336 -2.635622 1.431749 0.000000 0.000000 0.000000 0.936700 5.578431 -0.175027 -14.872728 19.844292 -1.829945 1.161335 22.760332 -17.137500 0.000000 0.000000 0.000000 4.473547 5.387051 -0.516847 4.803802 -18.204300 -1.939769 -5.664569 0.337827 -3.897265 -20.754787 18.111293 -25.962154 -30.346005 -75.252743 -22.297868 0.000000 0.000000 0.000000 4.171301 5.864577 -0.513371 -1.483432 30.601512 21.227343 6.084646 5.971381 0.351179 -53.869702 -2.660126 22.409425 -35.072909 59.260722 29.988041 0.000000 0.000000 0.000000 
3.153766 52.434704 129.750580 0.000000 0.000000 0.000000 20.763719 -55.459408 27.764552 -52.915186 -35.087863 40.829310 76.391301 -1.021859 -42.043503 -12.356038 2.463189 -14.709915 0.241275 0.549358 1.042402 0.000000 0.000000 0.000000 20.197571 -58.243209 29.004726 -64.073301 29.953330 -47.628617 93.956478 27.720808 12.302555 -38.755846 -9.354848 15.932803 8.708300 0.905074 0.467374 0.000000 0.000000 0.000000 16.644638 -56.485179 23.230652 37.737321 -2.552989 -11.992524 0.449143 4.836460 -0.921000 1.171152 -2.930850 1.207144 0.000000 0.000000 0.000000 1.350127 5.498058 0.073886 -16.092800 20.465210 -1.404578 -1.282898 22.155371 -15.048399 0.000000 0.000000 0.000000 4.611125 5.350133 -0.202080 5.246856 -18.389723 -1.121267 -6.078047 -0.131777 -4.815066 -22.019907 14.206459 -26.336731 -20.266018 -70.961649 -13.122136 0.000000 0.000000 0.000000 4.147467 5.725424 -0.354775 -0.805325 28.986169 21.648870 7.343678 6.012177 1.232162 -56.842661 -2.403484 24.392294 -39.747395 63.384483 35.074893 0.000000 0.000000 0.000000 
3.261764 53.729149 128.650864 0.000000 0.000000 0.000000 21.622895 -55.942576 27.658795 -51.707394 -33.402289 40.359673 76.452514 -0.366575 -41.510123 -12.337181 2.416111 -14.808024 -2.002635 0.492867 1.958355 0.000000 0.000000 0.000000 21.831605 -58.349575 28.850692 -63.099589 28.729575 -46.344743 90.837985 27.274632 11.916355 -37.832752 -9.870656 17.184322 9.233076 1.228088 0.444084 0.000000 0.000000 0.000000 17.801322 -55.907906 22.815118 36.293836 -2.513872 -12.555743 0.578728 4.850736 -0.796376 1.236116 -3.144295 0.969662 0.000000 0.000000 0.000000 2.181702 5.448339 0.169507 -17.476922 20.906371 -0.817845 -3.424389 21.543414 -12.994916 0.000000 0.000000 0.000000 4.848708 5.335577 0.081784 4.979339 -18.802963 -0.545747 -6.201129 -0.358726 -5.655951 -23.846379 10.702655 -26.672645 -15.305298 -67.795406 -8.888538 0.000000 0.000000 0.000000 4.246388 5.557475 -0.219480 -0.334039 26.852195 21.746971 8.110622 6.176521 1.899515 -58.732571 -4.408024 25.649604 -49.954641 68.794423 45.892997 0.000000 0.000000 0.000000 
